<svg xmlns="http://www.w3.org/2000/svg" width="273.443" height="78.141"><g data-name="Group 47"><path data-name="Path 200" d="M118.187 14.699l-3.245 13.112-3.794-13.113h-5.7l-3.781 13.064-3.184-13.064h-7.961l7.685 28.813h6.148l3.94-12.979 3.952 12.979h6.135l7.734-28.812z" fill="#fff"/><path data-name="Path 201" d="M136.691 32.069h-3.123l1.586-4.574 1.537 4.574zm-4.513-17.37L121.7 43.511h8l1.6-4.66h7.612l1.549 4.66h8l-10.527-28.812h-5.757z" fill="#fff"/><path data-name="Path 202" d="M157.807 21.738h3.623a2.7 2.7 0 0 1 1.854.634 2.375 2.375 0 0 1 .024 3.257 2.728 2.728 0 0 1-1.879.622h-3.622zm13.735 2.257a8.759 8.759 0 0 0-2.806-6.794 10.026 10.026 0 0 0-6.977-2.5h-11.552v28.81h7.6V32.996h1.7l5.111 10.515h8.795l-6.221-12a7.9 7.9 0 0 0 4.355-7.514" fill="#fff"/><path data-name="Path 203" d="M197.108 27.811l-3.794-13.113h-5.7l-3.781 13.064-3.184-13.064h-7.961l7.685 28.812h6.148l3.94-12.979 3.952 12.979h6.136l7.734-28.812h-7.929z" fill="#fff"/><path data-name="Path 204" d="M210.233 43.511h7.6V14.699h-7.6z" fill="#fff"/><path data-name="Path 205" d="M230.482 22.75a2.952 2.952 0 0 1 2.6-1.232c1.793 0 2.794.866 3.257 2.793l.219.939h7.636l-.244-1.427a11.281 11.281 0 0 0-3.611-6.855 10.785 10.785 0 0 0-7.294-2.5 10.955 10.955 0 0 0-7.965 3.232 9.475 9.475 0 0 0-2.647 5.209 38.487 38.487 0 0 0-.317 6.184 37.852 37.852 0 0 0 .317 6.2 9.845 9.845 0 0 0 2.635 5.184 11.6 11.6 0 0 0 15.272.72 11.075 11.075 0 0 0 3.611-6.843l.231-1.427h-7.624l-.231.927c-.488 1.94-1.488 2.806-3.257 2.806-1.366 0-2.964-.439-3.294-3.855a13.371 13.371 0 0 1-.073-1.366v-2.33c.012-4.757.561-6.038.781-6.355" fill="#fff"/><path data-name="Path 206" d="M262.123 26.519l9.844-11.82h-9.441l-7.477 9.246v-9.246h-7.6v28.812h7.6v-8.722l1.964-2.354 6.245 11.076h8.893z" fill="#fff"/><path data-name="Path 207" d="M53.574 20.493l-4.769 19.261-5.574-19.261h-8.369l-5.55 19.187-4.684-19.188H12.942l11.3 42.316h9.014l5.794-19.066 5.792 19.066h9.027l11.344-42.315z" fill="#b2c924"/><path data-name="Path 208" d="M6.287 6.539l.061 66.321 66.064-.134.134-66.126-66.26-.061zm-.639 67.028L5.587 5.844l67.662.073-.134 67.516-67.467.134z" fill="#fff"/><path data-name="Path 209" d="M39.07 2.611a36.448 36.448 0 1 0 36.448 36.448A36.493 36.493 0 0 0 39.07 2.611m0 75.53a39.485 39.485 0 0 1-7.87-.793 38.4 38.4 0 0 1-7.331-2.281 39.191 39.191 0 0 1-6.636-3.6 40.051 40.051 0 0 1-5.782-4.769 39.4 39.4 0 0 1-4.769-5.782 38.348 38.348 0 0 1-3.6-6.636 37.961 37.961 0 0 1-2.289-7.339 39.493 39.493 0 0 1 0-15.748 38.4 38.4 0 0 1 2.281-7.331 39.066 39.066 0 0 1 8.368-12.421 40.051 40.051 0 0 1 5.782-4.769A39.055 39.055 0 0 1 31.19.793a39.493 39.493 0 0 1 15.748 0 38.4 38.4 0 0 1 7.331 2.281 39.066 39.066 0 0 1 12.418 8.367 39.059 39.059 0 0 1 10.648 19.75 39.493 39.493 0 0 1 0 15.748 38.4 38.4 0 0 1-2.281 7.331 39.191 39.191 0 0 1-3.6 6.636A39.235 39.235 0 0 1 60.9 71.456a37.857 37.857 0 0 1-6.624 3.611 38.67 38.67 0 0 1-7.326 2.281 39.515 39.515 0 0 1-7.88.793" fill="#fff"/><path data-name="Path 210" d="M96.95 66.431v-16.6h10.063v1.122h-8.807v6.55h7.5v1.122h-7.5v6.7h8.807v1.106z" fill="#b2c924"/><path data-name="Path 211" d="M115.088 66.431h-1.073l-5.453-16.6h1.33l4.66 14.394 4.66-14.394h1.33z" fill="#b2c924"/><path data-name="Path 212" d="M123.347 66.431v-16.6h10.076v1.122h-8.819v6.55h7.514v1.122h-7.514v6.7h8.819v1.106z" fill="#b2c924"/><path data-name="Path 213" d="M148.133 66.431l-9.575-14.43v14.43h-1.269v-16.6h1.269l9.575 14.394V49.831h1.256v16.6z" fill="#b2c924"/><path data-name="Path 214" d="M158.867 50.952v15.479h-1.269V50.952h-4.94v-1.11h11.173v1.11z" fill="#b2c924"/><path data-name="Path 215" d="M177.188 66.577a7 7 0 0 1-5.525-2.2l.891-.89a5.821 5.821 0 0 0 4.708 1.952c2.635 0 4.269-1.256 4.269-3.428a2.883 2.883 0 0 0-.915-2.33 4.089 4.089 0 0 0-2.4-.89l-1.939-.3a5.72 5.72 0 0 1-2.964-1.183 3.777 3.777 0 0 1-1.305-3.074c0-2.781 1.952-4.55 5.147-4.55a6.59 6.59 0 0 1 4.781 1.793l-.817.817a5.287 5.287 0 0 0-4.038-1.537c-2.427 0-3.842 1.305-3.842 3.428a2.708 2.708 0 0 0 .842 2.2 4.828 4.828 0 0 0 2.379.951l1.939.3a5.063 5.063 0 0 1 2.964 1.147 4.065 4.065 0 0 1 1.415 3.2c.012 2.806-2.11 4.6-5.587 4.6" fill="#b2c924"/><path data-name="Path 216" d="M186.727 66.431v-16.6h10.075v1.122h-8.807v6.55h7.5v1.122h-7.5v6.7h8.807v1.106z" fill="#b2c924"/><path data-name="Path 217" d="M206.83 50.952h-4.892v6.709h4.892c2.147 0 3.659-1.049 3.659-3.354s-1.512-3.354-3.659-3.354m3.635 15.478l-3.964-7.648h-4.574v7.648h-1.257V49.842h6.319c2.708 0 4.757 1.561 4.757 4.452a4.277 4.277 0 0 1-3.818 4.477l4.013 7.66h-1.476z" fill="#b2c924"/><path data-name="Path 218" d="M220.076 66.431h-1.073l-5.453-16.6h1.33l4.66 14.394 4.66-14.394h1.329z" fill="#b2c924"/><path data-name="Path 219" d="M228.335 49.842h1.256v16.589h-1.256z" fill="#b2c924"/><path data-name="Path 220" d="M239.768 66.577a5.644 5.644 0 0 1-4.038-1.586c-1.537-1.537-1.658-2.818-1.658-6.855s.122-5.318 1.658-6.855a5.623 5.623 0 0 1 4.038-1.586 5.524 5.524 0 0 1 5.647 4.843h-1.281a4.439 4.439 0 0 0-7.5-2.452c-1.183 1.2-1.281 2.537-1.281 6.038s.1 4.843 1.281 6.038a4.309 4.309 0 0 0 3.147 1.281 4.388 4.388 0 0 0 4.4-3.733h1.232a5.568 5.568 0 0 1-5.645 4.867" fill="#b2c924"/><path data-name="Path 221" d="M249.743 66.431v-16.6h10.076v1.122h-8.807v6.55h7.5v1.122h-7.5v6.7h8.807v1.106z" fill="#b2c924"/><path data-name="Path 222" d="M267.844 66.577a7 7 0 0 1-5.525-2.2l.89-.89a5.838 5.838 0 0 0 4.708 1.952c2.635 0 4.27-1.256 4.27-3.428a2.882 2.882 0 0 0-.915-2.33 4.087 4.087 0 0 0-2.4-.89l-1.94-.3a5.718 5.718 0 0 1-2.964-1.183 3.775 3.775 0 0 1-1.3-3.074c0-2.781 1.964-4.55 5.147-4.55a6.59 6.59 0 0 1 4.781 1.793l-.817.817a5.286 5.286 0 0 0-4.038-1.537c-2.427 0-3.842 1.305-3.842 3.428a2.708 2.708 0 0 0 .841 2.2 4.829 4.829 0 0 0 2.379.951l1.939.3a5.029 5.029 0 0 1 2.964 1.147 4.074 4.074 0 0 1 1.427 3.2c-.012 2.806-2.135 4.6-5.6 4.6" fill="#b2c924"/></g></svg>